<?xml version="1.0" standalone="no"?><!DOCTYPE svg PUBLIC "-//W3C//DTD SVG 1.1//EN" "http://www.w3.org/Graphics/SVG/1.1/DTD/svg11.dtd"><svg class="icon" width="200px" height="200.00px" viewBox="0 0 1024 1024" version="1.1" xmlns="http://www.w3.org/2000/svg"><path d="M348.8 930.4c-64.8 0-125.6-24.8-171.2-71.2-3.2-3.2-4.8-7.2-4.8-11.2 0-4 1.6-8 4.8-11.2 94.4-94.4 248-94.4 342.4 0 6.4 6.4 6.4 16 0 22.4-45.6 45.6-106.4 71.2-171.2 71.2zM212 848c37.6 32.8 85.6 50.4 136 50.4 50.4 0 98.4-17.6 136-50.4-77.6-66.4-193.6-66.4-272 0z" fill="#303C42" /><path d="M175.2 850.4c-4 0-8-1.6-11.2-4.8-94.4-94.4-94.4-248 0-342.4 6.4-6.4 16.8-6.4 22.4 0 45.6 45.6 71.2 106.4 71.2 171.2 0 64.8-24.8 125.6-71.2 171.2-3.2 3.2-7.2 4.8-11.2 4.8z m0-312c-66.4 78.4-66.4 194.4 0 272.8 32.8-37.6 50.4-85.6 50.4-136 0-51.2-17.6-98.4-50.4-136.8zM489.6 788.8c-61.6 0-124-23.2-171.2-70.4-3.2-3.2-4.8-7.2-4.8-11.2 0-4 1.6-8 4.8-11.2 94.4-94.4 248-94.4 342.4 0 3.2 3.2 4.8 7.2 4.8 11.2 0 4-1.6 8-4.8 11.2-47.2 47.2-109.6 70.4-171.2 70.4z m-136-81.6c78.4 66.4 194.4 66.4 272.8 0-78.4-67.2-195.2-67.2-272.8 0z" fill="#303C42" /><path d="M316 709.6c-4 0-8-1.6-11.2-4.8-94.4-94.4-94.4-248 0-342.4 6.4-6.4 16.8-6.4 22.4 0 45.6 45.6 71.2 106.4 71.2 171.2 0 64.8-24.8 125.6-71.2 171.2-2.4 3.2-6.4 4.8-11.2 4.8z m0-312c-66.4 78.4-66.4 194.4 0 272.8 32.8-37.6 50.4-85.6 50.4-136 0-51.2-17.6-99.2-50.4-136.8zM590.4 448.8c-8.8 0-16-7.2-16-16 0-133.6 108.8-241.6 241.6-241.6 8.8 0 16 7.2 16 16 0.8 132.8-108 241.6-241.6 241.6zM800 223.2c-102.4 8-184.8 90.4-192.8 192.8C709.6 408 792 325.6 800 223.2zM630.4 648c-64.8 0-125.6-24.8-171.2-71.2-6.4-6.4-6.4-16 0-22.4 45.6-45.6 106.4-71.2 171.2-71.2 64.8 0 125.6 24.8 171.2 71.2 3.2 3.2 4.8 7.2 4.8 11.2 0 4-1.6 8-4.8 11.2-45.6 46.4-106.4 71.2-171.2 71.2z m-136-81.6c37.6 32.8 85.6 50.4 136 50.4 50.4 0 98.4-17.6 136-50.4-37.6-32.8-85.6-50.4-136-50.4-50.4 0-98.4 17.6-136 50.4z" fill="#303C42" /><path d="M457.6 568.8c-4 0-8-1.6-11.2-4.8-45.6-45.6-71.2-106.4-71.2-171.2s24.8-125.6 71.2-171.2c3.2-3.2 7.2-4.8 11.2-4.8 4 0 8 1.6 11.2 4.8 94.4 94.4 94.4 248 0 342.4-3.2 3.2-7.2 4.8-11.2 4.8z m0-312c-32.8 37.6-50.4 85.6-50.4 136 0 50.4 17.6 98.4 50.4 136 66.4-78.4 66.4-194.4 0-272zM879.2 160c-4 0-8-1.6-11.2-4.8-6.4-6.4-6.4-16 0-22.4L992 8.8c6.4-6.4 16-6.4 22.4 0 6.4 6.4 6.4 16 0 22.4l-124 124c-3.2 3.2-7.2 4.8-11.2 4.8zM821.6 508.8c-4 0-8-1.6-11.2-4.8-6.4-6.4-6.4-16 0-22.4L960 332c6.4-6.4 16-6.4 22.4 0 6.4 6.4 6.4 16 0 22.4L832.8 504c-3.2 3.2-7.2 4.8-11.2 4.8zM531.2 217.6c-4 0-8-1.6-11.2-4.8-6.4-6.4-6.4-16 0-22.4L668.8 40.8c6.4-6.4 16-6.4 22.4 0 6.4 6.4 6.4 16 0 22.4L542.4 212.8c-3.2 3.2-7.2 4.8-11.2 4.8zM20.8 1020c-4 0-8-1.6-11.2-4.8-6.4-6.4-6.4-16 0-22.4L104 898.4c6.4-6.4 16-6.4 22.4 0 6.4 6.4 6.4 16 0 22.4L32 1015.2c-3.2 3.2-7.2 4.8-11.2 4.8z" fill="#303C42" /><path d="M164.8 947.2c-5.6 0-12-1.6-20-4.8-12-4.8-24.8-14.4-36.8-26.4-24.8-24.8-41.6-58.4-23.2-76.8 6.4-6.4 16-6.4 22.4 0 5.6 5.6 6.4 14.4 1.6 20.8 0.8 4.8 7.2 18.4 21.6 33.6 14.4 14.4 28 20.8 33.6 21.6 6.4-4 15.2-4 20.8 1.6 6.4 6.4 6.4 16 0 22.4-3.2 4-9.6 8-20 8z" fill="#303C42" /></svg>