<?xml version="1.0" standalone="no"?><!DOCTYPE svg PUBLIC "-//W3C//DTD SVG 1.1//EN" "http://www.w3.org/Graphics/SVG/1.1/DTD/svg11.dtd"><svg class="icon" width="200px" height="200.00px" viewBox="0 0 1024 1024" version="1.1" xmlns="http://www.w3.org/2000/svg"><path d="M68 534v-42c1.33-6 0.63-12.22 0.84-18.31C69.77 447 75.3 421.14 82 395.5a436.6 436.6 0 0 1 34.12-89 456.85 456.85 0 0 1 60.8-90.12 444 444 0 0 1 109.88-92 438.12 438.12 0 0 1 165.42-58 331.29 331.29 0 0 1 44.29-2.86c21.48-0.11 43-0.86 64.4 1.29a417.62 417.62 0 0 1 73.51 14.3A448.14 448.14 0 0 1 902.81 293.3 452.6 452.6 0 0 1 953 436a276.07 276.07 0 0 1 4.56 51.64c0 1.44-0.5 3 0.48 4.35v42c-1.33 6-0.61 12.22-0.85 18.32-1.07 26.82-6.48 52.87-13.27 78.67A438.64 438.64 0 0 1 909 721.27a455.58 455.58 0 0 1-59.89 88.33 444.71 444.71 0 0 1-109.87 92 438.27 438.27 0 0 1-165.42 58c-17 2.38-34.14 2.87-51.29 2.91-19.15 0-38.34 0.63-57.4-1.32a422.3 422.3 0 0 1-73.51-14.3A448.16 448.16 0 0 1 123.19 732.7 452.74 452.74 0 0 1 75 600.81c-4.23-21.1-7-42.37-6.53-64 0.05-0.92 0.3-1.97-0.47-2.81z" fill="#F3F3F3" /><path d="M68 534c1.21 1 1 2.39 1 3.7 0.49 19.25 3.27 38.19 6.61 57.15A445.88 445.88 0 0 0 152.3 776a489.51 489.51 0 0 0 35.88 43.88c30.76 33.63 66.16 61.27 105.52 84.09a433.59 433.59 0 0 0 116.83 46.35 473.37 473.37 0 0 0 59.7 9.91c21.75 2.37 43.52 2.17 65.26 1.6 17.84-0.46 35.62-2.8 53.24-5.92a451.18 451.18 0 0 0 70.69-18.51A435.56 435.56 0 0 0 770 879.68a484.07 484.07 0 0 0 43.86-35.91c33-30.15 60.28-64.88 82.9-103.32 23.11-39.27 39.39-81.3 49.72-125.62a411.56 411.56 0 0 0 8.61-51.38c0.91-8.91 2.11-17.78 1.92-26.76a3.1 3.1 0 0 1 1-2.7q0 212.25 0.09 424.5c0 3.75-0.84 4.59-4.59 4.59q-440.5-0.15-881 0c-3.75 0-4.6-0.84-4.59-4.59Q68.07 746.25 68 534zM958 492c-1.21-1-1-2.39-1-3.7-0.34-15.26-2.46-30.3-4.66-45.41A446 446 0 0 0 873.7 250a489.63 489.63 0 0 0-35.88-43.88c-30.76-33.63-66.16-61.27-105.52-84.09a433.6 433.6 0 0 0-116.83-46.31 473.3 473.3 0 0 0-59.7-9.9c-21.75-2.37-43.52-2.17-65.26-1.6-17.84 0.46-35.62 2.81-53.24 5.92a451.15 451.15 0 0 0-70.69 18.51A435.55 435.55 0 0 0 256 146.32a488.28 488.28 0 0 0-43.87 35.9c-33.08 30.12-60.26 64.89-82.89 103.33a441.68 441.68 0 0 0-49.7 125.63 379.51 379.51 0 0 0-8.66 51.36c-0.8 8.91-2.09 17.78-1.9 26.76a3.1 3.1 0 0 1-1 2.7q0-212.19-0.08-424.38c0-3.52 0.43-4.73 4.46-4.73q440.62 0.18 881.25 0c4 0 4.46 1.21 4.46 4.73Q957.94 279.81 958 492z" fill="#FEFEFE" /><path d="M657.16 779.06c-37.77 1.23-71.48-32-67.94-73.44 1.72-20.22 11.16-36.74 27.7-48.78 2.9-2.11 2.66-3.31 0.71-5.76q-29-36.56-57.68-73.31c-2.09-2.68-3.77-2.95-6.66-1.44a98.77 98.77 0 0 1-46.58 11.33c-26.24-0.12-50-8.13-70.17-25.56-1.51-1.3-3.14-2.47-4.6-3.82-6.28-5.77-6.3-5.83-12.9-0.64q-35.86 28.23-71.72 56.48c-2.49 2-2.92 3.31-1.29 6.32a67.82 67.82 0 0 1-38.73 97.31c-39.22 12.76-81.21-13.19-87.41-54-5.63-37.12 17.81-70.53 54.87-77.36 22.22-4.09 41.81 2.24 58.41 17.48 2.38 2.18 3.65 2.71 6.41 0.51q38-30.3 76.39-60.22c2.93-2.28 1-3.64-0.07-5.27a103.85 103.85 0 0 1-16-41.07c-4.89-30.52 2.07-58.23 20.64-82.71 19.14-25.22 45.13-38.69 76.47-41.93 3-0.31 4-1.19 3.94-4.16q-0.13-40.5 0-81c0-3.09-1.11-3.87-4-4-30.62-1.89-56.54-26.2-61-57.08-4.37-30 10.19-58.88 37.36-71.23 26.43-12 51.57-8.92 74.07 10.11 15.85 13.41 23.67 31.09 23.3 51.42-0.59 32.26-21.33 58.19-53.31 65.59-3.75 0.87-4.39 2.36-4.38 5.63q0.13 40 0 80c0 3.29 0.8 4.58 4.26 5 17.92 2.29 34.66 8 49.51 18.49q39 27.56 45.47 74.91a111 111 0 0 1 0.68 19.92c-0.17 4 1.18 5.47 5 6.33 34.56 7.81 69.18 15.89 103.81 23.89 6.47 1.5 13 2.94 19.4 4.58 2.55 0.65 4.16 0.44 5.8-2.07 12.3-18.81 29.43-29.61 52.11-31.64a67.14 67.14 0 0 1 71.86 54.23c7.41 39.61-18.12 75.39-58.4 80.52-35.71 4.55-67.27-19.27-74.39-53.69a61.76 61.76 0 0 1 0.84-30.13c1.17-4-0.18-5-3.81-5.86Q681 520.58 626.86 508c-4-0.94-8.11-1.79-12.11-2.9-3-0.83-4.5-0.51-5.43 3a104.31 104.31 0 0 1-31.57 51.66 59.9 59.9 0 0 1-6.89 5.75c-2.77 1.84-2.19 3.27-0.43 5.49q29.24 37 58.29 74.1c2 2.61 4 3.11 7.28 2.09 39.85-12.54 80.55 11.8 87.7 52.91 7.17 41.34-24.88 79.49-66.54 78.96z" fill="#F8B49F" /><path d="M486.38 449.74c9.21-0.41 18.14-1.86 26.89 0.83 10.4 3.2 15.11 11.28 16.44 21.18a66.24 66.24 0 0 1-0.48 22.35c-2.79 13.43-8.09 19-21.4 21.42-7 1.25-14.1 0.35-21.6-0.11 7.56-1.11 5.77-6.54 5.78-11 0-15.32-0.07-30.63 0.07-45.95 0.05-4.2 0.18-8.04-5.7-8.72zM664.24 687.23a38 38 0 0 1 11.27 0.35c-3.08 1.61-3.72 3.62-3.69 6.24 0.14 11.82 0.12 23.64 0 35.46 0 2.47 0.29 4.52 4.33 5.93-4.85 1.23-8.2 0.6-11.77 0.73 4.74-7.6 2.24-15.58 2.34-23.21 0-3-3.59-1.84-5.38-1.6-3.7 0.49-9.58-2.54-10.7 1.71-1.55 5.88-0.34 12.52-0.17 18.83 0 1.81 2.14 2.2 4.15 3.82a40.42 40.42 0 0 1-13.71-0.1c5.57-1.64 5.09-5 5.08-8.19 0-10.82-0.06-21.64 0-32.46 0-2.92 0.14-5.71-5.23-6.63 5.33-1.6 9-1.09 13.12-0.8-6.54 6-3 13.37-3.54 20.06-0.16 2.05 2.2 1.75 3.56 1.58 4.29-0.51 11.38 2.17 12.32-1.43 1.64-6.12 2.91-13.52-1.98-20.29zM790.92 553.18c-0.41-6.3 0.53-12.3 3.83-17.77 2.63-4.36 6.17-7.56 11.58-7.35s9.38 2.9 11.72 7.92c5.63 12.07 5.78 24.14-0.52 35.93-4.86 9.09-15.53 9.44-21.61 1.09-4.37-6-5.42-12.71-5-19.82z" fill="#FD7643" /><path d="M277 636c0 11.63 0.08 23.26-0.05 34.88 0 3.28 1.7 4.39 5.39 4.33-3.82 2.13-6 2.25-12.12 0.77 5.23-0.8 4.9-3.88 4.88-7q-0.13-17 0-33.95c0-2.9-0.17-5.3-4.32-5.54 5.61-2.58 7.84-2.07 10.09 2.22 5 9.42 9.77 18.91 14.68 28.35 0.75 1.43 1.09 3.14 3.35 4.69 0-10.06-0.09-19.56 0.05-29.07 0.05-3.37-0.33-6-4.74-6.52 3.5-1.6 6.84-1 10.55-0.52-4.12 1.28-4 4.22-4 7.42 0.12 12 0.08 24 0 35.95 0 1.54 0.7 3.33-1.66 5.28l-21-41.63z" fill="#FD7745" /><path d="M519.84 194.91v16.75c-2.06-3.94-3.29-6.73-4.9-9.27-5.11-8-14.34-8.61-20.43-1.4-5.26 6.23-6.41 20.59-2.19 27.5 5 8.27 17.41 8.77 23.46 1 1.08-1.4 1.62-3.27 3.47-4.14-0.94 8.26-10.85 14.36-19.88 12.22-12.42-2.94-15.27-12.58-15-23.24a24.69 24.69 0 0 1 2.93-11c4.79-8.9 16.44-12.45 24.9-7 3.41 2.13 5.59 3.14 7.64-1.42z" fill="#FD7644" /><path d="M498.12 482.25v-25c0-5.34 1.11-6.34 6.51-6.29A16.16 16.16 0 0 1 520 461.73a65.12 65.12 0 0 1 0.36 40.17c-2.06 6.85-9.58 11.89-16.24 12.13-4.2 0.15-6.11-1.49-6-5.83 0.1-8.64 0-17.3 0-25.95zM796 553.14a40 40 0 0 1 2.2-16.2c1.39-3.79 3.8-6.84 8.27-6.87s6.88 3.24 8 7.08a56.46 56.46 0 0 1 0.46 31.47c-1.21 4.3-3.3 8.46-8.63 8.27-5.11-0.18-7.28-4.06-8.6-8.45a44.35 44.35 0 0 1-1.7-15.3z" fill="#F8B49F" /></svg>