<?xml version="1.0" standalone="no"?><!DOCTYPE svg PUBLIC "-//W3C//DTD SVG 1.1//EN" "http://www.w3.org/Graphics/SVG/1.1/DTD/svg11.dtd"><svg class="icon" width="200px" height="200.00px" viewBox="0 0 1024 1024" version="1.1" xmlns="http://www.w3.org/2000/svg"><path d="M616.5 389.41c14.94 67.61 75.15 118.22 147.25 118.22 83.34 0 150.9-67.56 150.9-150.9 0-72.11-50.61-132.31-118.22-147.25v-104.3c0-18.05-14.63-32.68-32.68-32.68-18.04 0-32.68 14.63-32.68 32.68v104.3C674 222.1 629.12 266.98 616.5 324.06H484.17c-12.62-57.08-57.49-101.96-114.57-114.57v-104.3c0-18.05-14.63-32.68-32.68-32.68-18.04 0-32.68 14.63-32.68 32.68v104.3c-67.61 14.94-118.22 75.14-118.22 147.25 0 83.34 67.56 150.9 150.9 150.9 21.91 0 42.69-4.73 61.47-13.13l126.72 105.56c-10.71 20.73-16.86 44.19-16.86 69.13 0 8.82 0.91 17.41 2.37 25.82l-123.86 33.72c-25.27-47.95-75.54-80.68-133.51-80.68-83.34 0-150.9 67.56-150.9 150.9s67.56 150.9 150.9 150.9 150.9-67.56 150.9-150.9c0-2.4-0.25-4.74-0.36-7.12l131.98-35.93c27.31 38.79 72.34 64.2 123.38 64.2 83.34 0 150.9-67.56 150.9-150.9s-67.56-150.9-150.9-150.9c-34.74 0-66.65 11.86-92.16 31.6L452 454.1c15.52-18.35 26.81-40.39 32.18-64.69H616.5z m54.8-67.62c0-6.27 5.08-11.35 11.35-11.35 6.26 0 11.35 5.08 11.35 11.35v69.89c0 6.27-5.08 11.35-11.35 11.35s-11.35-5.08-11.35-11.35v-69.89z m-395.37 69.89c0 6.27-5.08 11.35-11.35 11.35s-11.35-5.08-11.35-11.35v-69.89c0-6.27 5.08-11.35 11.35-11.35 6.26 0 11.35 5.08 11.35 11.35v69.89z m49.69 442.21c0 6.27-5.08 11.35-11.34 11.35-6.27 0-11.34-5.08-11.34-11.35V764c0-6.27 5.08-11.35 11.34-11.35 6.27 0 11.34 5.08 11.34 11.35v69.89z m415.37-205.78c0-6.27 5.08-11.35 11.34-11.35 6.27 0 11.34 5.08 11.34 11.35V698c0 6.27-5.08 11.35-11.34 11.35-6.27 0-11.34-5.08-11.34-11.35v-69.89z" /></svg>